STARTFONT 2.1
COMMENT Recovered from arc.ast's:GATES3 AST (MIT CADR AST source recovered from ARC!!!)
FONT MIT-CADR-GATES3
SIZE 32 72 72
FONTBOUNDINGBOX 16 32 0 -26
STARTPROPERTIES 2
FONT_ASCENT 6
FONT_DESCENT 26
ENDPROPERTIES
CHARS 70
STARTCHAR C0021
ENCODING -1 33
SWIDTH 188 0
DWIDTH 6 0
BBX 16 32 0 -26
BITMAP
6000
2000
2000
2000
2000
2000
7000
0000
0000
0000
0000
0000
0000
0000
0000
0000
0000
0000
0000
0000
0000
0000
0000
0000
0000
0000
0000
0000
0000
0000
0000
0000
ENDCHAR
STARTCHAR C0022
ENCODING -1 34
SWIDTH 31 0
DWIDTH 1 0
BBX 16 32 0 -26
BITMAP
0000
0000
0000
0000
0000
0000
0000
0000
0000
0000
0000
0000
0000
0000
0000
0000
0000
0000
0000
0000
0000
0000
0000
0000
0000
0000
0000
0000
0000
0000
0000
0000
ENDCHAR
STARTCHAR C0023
ENCODING -1 35
SWIDTH 188 0
DWIDTH 6 0
BBX 16 32 0 -26
BITMAP
7000
8800
0800
3000
0800
8800
7000
0000
0000
0000
0000
0000
0000
0000
0000
0000
0000
0000
0000
0000
0000
0000
0000
0000
0000
0000
0000
0000
0000
0000
0000
0000
ENDCHAR
STARTCHAR C0024
ENCODING -1 36
SWIDTH 188 0
DWIDTH 6 0
BBX 16 32 0 -26
BITMAP
1000
3000
5000
9000
F800
1000
3800
0000
0000
0000
0000
0000
0000
0000
0000
0000
0000
0000
0000
0000
0000
0000
0000
0000
0000
0000
0000
0000
0000
0000
0000
0000
ENDCHAR
STARTCHAR C0025
ENCODING -1 37
SWIDTH 188 0
DWIDTH 6 0
BBX 16 32 0 -26
BITMAP
F800
8000
F000
0800
0800
8800
7000
0000
0000
0000
0000
0000
0000
0000
0000
0000
0000
0000
0000
0000
0000
0000
0000
0000
0000
0000
0000
0000
0000
0000
0000
0000
ENDCHAR
STARTCHAR C0026
ENCODING -1 38
SWIDTH 188 0
DWIDTH 6 0
BBX 16 32 0 -26
BITMAP
F800
8800
1000
1000
2000
2000
2000
0000
0000
0000
0000
0000
0000
0000
0000
0000
0000
0000
0000
0000
0000
0000
0000
0000
0000
0000
0000
0000
0000
0000
0000
0000
ENDCHAR
STARTCHAR C0027
ENCODING -1 39
SWIDTH 31 0
DWIDTH 1 0
BBX 16 32 0 -26
BITMAP
0000
0000
0000
0000
0000
0000
0000
0000
0000
0000
0000
0000
0000
0000
0000
0000
0000
0000
0000
0000
0000
0000
0000
0000
0000
0000
0000
0000
0000
0000
0000
0000
ENDCHAR
STARTCHAR C0028
ENCODING -1 40
SWIDTH 188 0
DWIDTH 6 0
BBX 16 32 0 -26
BITMAP
7000
8800
8800
7800
0800
0800
7000
0000
0000
0000
0000
0000
0000
0000
0000
0000
0000
0000
0000
0000
0000
0000
0000
0000
0000
0000
0000
0000
0000
0000
0000
0000
ENDCHAR
STARTCHAR C0029
ENCODING -1 41
SWIDTH 188 0
DWIDTH 6 0
BBX 16 32 0 -26
BITMAP
7000
9800
A800
C800
8800
8800
7000
0000
0000
0000
0000
0000
0000
0000
0000
0000
0000
0000
0000
0000
0000
0000
0000
0000
0000
0000
0000
0000
0000
0000
0000
0000
ENDCHAR
STARTCHAR C002A
ENCODING -1 42
SWIDTH 188 0
DWIDTH 6 0
BBX 16 32 0 -26
BITMAP
7000
8800
8800
7000
8800
8800
7000
0000
0000
0000
0000
0000
0000
0000
0000
0000
0000
0000
0000
0000
0000
0000
0000
0000
0000
0000
0000
0000
0000
0000
0000
0000
ENDCHAR
STARTCHAR C002C
ENCODING -1 44
SWIDTH 62 0
DWIDTH 2 0
BBX 16 32 0 -26
BITMAP
8000
0000
0000
0000
0000
0000
0000
0000
0000
0000
0000
0000
0000
0000
0000
0000
0000
0000
0000
0000
0000
0000
0000
0000
0000
0000
0000
0000
0000
0000
0000
0000
ENDCHAR
STARTCHAR C002D
ENCODING -1 45
SWIDTH 188 0
DWIDTH 6 0
BBX 16 32 0 -26
BITMAP
0000
0000
0000
7800
0000
0000
0000
0000
0000
0000
0000
0000
0000
0000
0000
0000
0000
0000
0000
0000
0000
0000
0000
0000
0000
0000
0000
0000
0000
0000
0000
0000
ENDCHAR
STARTCHAR C002E
ENCODING -1 46
SWIDTH 219 0
DWIDTH 7 0
BBX 16 32 0 -26
BITMAP
0000
0000
0000
1C00
1C00
1C00
0000
0000
0000
0000
0000
0000
0000
0000
0000
0000
0000
0000
0000
0000
0000
0000
0000
0000
0000
0000
0000
0000
0000
0000
0000
0000
ENDCHAR
STARTCHAR C002F
ENCODING -1 47
SWIDTH 31 0
DWIDTH 1 0
BBX 16 32 0 -26
BITMAP
0000
0000
0000
0000
0000
0000
0000
0000
0000
0000
0000
0000
0000
0000
0000
0000
0000
0000
0000
0000
0000
0000
0000
0000
0000
0000
0000
0000
0000
0000
0000
0000
ENDCHAR
STARTCHAR C0030
ENCODING -1 48
SWIDTH 156 0
DWIDTH 5 0
BBX 16 32 0 -26
BITMAP
7000
9000
9000
9000
6000
0000
0000
0000
0000
0000
0000
0000
0000
0000
0000
0000
0000
0000
0000
0000
0000
0000
0000
0000
0000
0000
0000
0000
0000
0000
0000
0000
ENDCHAR
STARTCHAR C0031
ENCODING -1 49
SWIDTH 125 0
DWIDTH 4 0
BBX 16 32 0 -26
BITMAP
C000
4000
4000
4000
E000
0000
0000
0000
0000
0000
0000
0000
0000
0000
0000
0000
0000
0000
0000
0000
0000
0000
0000
0000
0000
0000
0000
0000
0000
0000
0000
0000
ENDCHAR
STARTCHAR C0032
ENCODING -1 50
SWIDTH 156 0
DWIDTH 5 0
BBX 16 32 0 -26
BITMAP
6000
9000
2000
4000
F000
0000
0000
0000
0000
0000
0000
0000
0000
0000
0000
0000
0000
0000
0000
0000
0000
0000
0000
0000
0000
0000
0000
0000
0000
0000
0000
0000
ENDCHAR
STARTCHAR C0033
ENCODING -1 51
SWIDTH 156 0
DWIDTH 5 0
BBX 16 32 0 -26
BITMAP
E000
1000
6000
1000
E000
0000
0000
0000
0000
0000
0000
0000
0000
0000
0000
0000
0000
0000
0000
0000
0000
0000
0000
0000
0000
0000
0000
0000
0000
0000
0000
0000
ENDCHAR
STARTCHAR C0034
ENCODING -1 52
SWIDTH 156 0
DWIDTH 5 0
BBX 16 32 0 -26
BITMAP
A000
A000
F000
2000
7000
0000
0000
0000
0000
0000
0000
0000
0000
0000
0000
0000
0000
0000
0000
0000
0000
0000
0000
0000
0000
0000
0000
0000
0000
0000
0000
0000
ENDCHAR
STARTCHAR C0035
ENCODING -1 53
SWIDTH 156 0
DWIDTH 5 0
BBX 16 32 0 -26
BITMAP
E000
8000
E000
1000
E000
0000
0000
0000
0000
0000
0000
0000
0000
0000
0000
0000
0000
0000
0000
0000
0000
0000
0000
0000
0000
0000
0000
0000
0000
0000
0000
0000
ENDCHAR
STARTCHAR C0036
ENCODING -1 54
SWIDTH 156 0
DWIDTH 5 0
BBX 16 32 0 -26
BITMAP
6000
8000
E000
9000
6000
0000
0000
0000
0000
0000
0000
0000
0000
0000
0000
0000
0000
0000
0000
0000
0000
0000
0000
0000
0000
0000
0000
0000
0000
0000
0000
0000
ENDCHAR
STARTCHAR C0037
ENCODING -1 55
SWIDTH 156 0
DWIDTH 5 0
BBX 16 32 0 -26
BITMAP
F000
1000
2000
4000
8000
0000
0000
0000
0000
0000
0000
0000
0000
0000
0000
0000
0000
0000
0000
0000
0000
0000
0000
0000
0000
0000
0000
0000
0000
0000
0000
0000
ENDCHAR
STARTCHAR C0038
ENCODING -1 56
SWIDTH 156 0
DWIDTH 5 0
BBX 16 32 0 -26
BITMAP
6000
9000
6000
9000
6000
0000
0000
0000
0000
0000
0000
0000
0000
0000
0000
0000
0000
0000
0000
0000
0000
0000
0000
0000
0000
0000
0000
0000
0000
0000
0000
0000
ENDCHAR
STARTCHAR C0039
ENCODING -1 57
SWIDTH 156 0
DWIDTH 5 0
BBX 16 32 0 -26
BITMAP
6000
9000
7000
1000
6000
0000
0000
0000
0000
0000
0000
0000
0000
0000
0000
0000
0000
0000
0000
0000
0000
0000
0000
0000
0000
0000
0000
0000
0000
0000
0000
0000
ENDCHAR
STARTCHAR C003A
ENCODING -1 58
SWIDTH 125 0
DWIDTH 4 0
BBX 16 32 0 -26
BITMAP
F000
F000
0000
0000
0000
0000
0000
0000
0000
0000
0000
0000
0000
0000
0000
0000
0000
0000
0000
0000
0000
0000
0000
0000
0000
0000
0000
0000
0000
0000
0000
0000
ENDCHAR
STARTCHAR C003B
ENCODING -1 59
SWIDTH 62 0
DWIDTH 2 0
BBX 16 32 0 -26
BITMAP
C000
C000
C000
C000
C000
C000
C000
0000
0000
0000
0000
0000
0000
0000
0000
0000
0000
0000
0000
0000
0000
0000
0000
0000
0000
0000
0000
0000
0000
0000
0000
0000
ENDCHAR
STARTCHAR C003C
ENCODING -1 60
SWIDTH 250 0
DWIDTH 8 0
BBX 16 32 0 -26
BITMAP
0000
0600
1800
6000
8000
6000
1800
0600
0000
0000
0000
0000
0000
0000
0000
0000
0000
0000
0000
0000
0000
0000
0000
0000
0000
0000
0000
0000
0000
0000
0000
0000
ENDCHAR
STARTCHAR C003E
ENCODING -1 62
SWIDTH 312 0
DWIDTH 10 0
BBX 16 32 0 -26
BITMAP
0000
3000
0C00
0300
0080
0300
0C00
3000
0000
0000
0000
0000
0000
0000
0000
0000
0000
0000
0000
0000
0000
0000
0000
0000
0000
0000
0000
0000
0000
0000
0000
0000
ENDCHAR
STARTCHAR C0040
ENCODING -1 64
SWIDTH 188 0
DWIDTH 6 0
BBX 16 32 0 -26
BITMAP
7000
8800
1000
2000
4000
8000
F800
0000
0000
0000
0000
0000
0000
0000
0000
0000
0000
0000
0000
0000
0000
0000
0000
0000
0000
0000
0000
0000
0000
0000
0000
0000
ENDCHAR
STARTCHAR C0041
ENCODING -1 65
SWIDTH 500 0
DWIDTH 16 0
BBX 16 32 0 -26
BITMAP
0000
7FC0
403C
4003
4000
4000
4000
4000
4000
4000
4000
4000
4000
4000
4000
4000
4000
0000
0000
0000
0000
0000
0000
0000
0000
0000
0000
0000
0000
0000
0000
4000
ENDCHAR
STARTCHAR C0042
ENCODING -1 66
SWIDTH 500 0
DWIDTH 16 0
BBX 16 32 0 -26
BITMAP
0000
0000
0000
0000
0000
0000
0000
0000
0000
0000
0000
0000
0000
0000
0000
0000
4000
4000
4000
4000
4000
4000
4000
4000
4000
4000
4000
4000
4000
4003
403C
7FC0
ENDCHAR
STARTCHAR C0043
ENCODING -1 67
SWIDTH 500 0
DWIDTH 16 0
BBX 16 32 0 -26
BITMAP
0000
7FC0
2038
1006
1001
0800
0800
0400
0400
0400
0200
0200
0200
0200
0200
0200
0200
0000
0000
0000
0000
0000
0000
0000
0000
0000
0000
0000
0000
0000
0000
0000
ENDCHAR
STARTCHAR C0044
ENCODING -1 68
SWIDTH 500 0
DWIDTH 16 0
BBX 16 32 0 -26
BITMAP
0000
0000
0000
0000
0000
0000
0000
0000
0000
0000
0000
0000
0000
0000
0000
0000
0000
0200
0200
0200
0200
0200
0200
0400
0400
0400
0800
0800
1001
1006
2038
7FC0
ENDCHAR
STARTCHAR C0045
ENCODING -1 69
SWIDTH 250 0
DWIDTH 8 0
BBX 16 32 0 -26
BITMAP
0000
4000
2000
1000
1000
0800
0800
0400
0400
0400
0200
0200
0200
0200
0200
0200
0200
0000
0000
0000
0000
0000
0000
0000
0000
0000
0000
0000
0000
0000
0000
0000
ENDCHAR
STARTCHAR C0046
ENCODING -1 70
SWIDTH 250 0
DWIDTH 8 0
BBX 16 32 0 -26
BITMAP
0000
0000
0000
0000
0000
0000
0000
0000
0000
0000
0000
0000
0000
0000
0000
0000
0000
0200
0200
0200
0200
0200
0200
0400
0400
0400
0800
0800
1000
1000
2000
4000
ENDCHAR
STARTCHAR C0047
ENCODING -1 71
SWIDTH 500 0
DWIDTH 16 0
BBX 16 32 0 -26
BITMAP
6000
5800
4600
4180
4060
4018
4006
4001
4000
4000
4000
4000
4000
0000
0000
0000
0000
0000
0000
0000
0000
0000
0000
0000
0000
0000
0000
0000
0000
0000
0000
0000
ENDCHAR
STARTCHAR C0048
ENCODING -1 72
SWIDTH 500 0
DWIDTH 16 0
BBX 16 32 0 -26
BITMAP
0000
0000
0000
0000
0000
0000
0000
0000
0000
0000
0000
0000
0000
4000
4000
4000
4000
4001
4006
4018
4060
4180
4600
5800
6000
0000
0000
0000
0000
0000
0000
0000
ENDCHAR
STARTCHAR C0049
ENCODING -1 73
SWIDTH 312 0
DWIDTH 10 0
BBX 16 32 0 -26
BITMAP
0000
0000
0000
0000
3E00
4100
8080
8080
8080
8080
8080
4100
3E00
0000
0000
0000
0000
0000
0000
0000
0000
0000
0000
0000
0000
0000
0000
0000
0000
0000
0000
0000
ENDCHAR
STARTCHAR C004F
ENCODING -1 79
SWIDTH 31 0
DWIDTH 1 0
BBX 16 32 0 -26
BITMAP
0000
0000
0000
0000
0000
0000
0000
0000
0000
0000
0000
0000
0000
0000
0000
0000
0000
0000
0000
0000
0000
0000
0000
0000
0000
0000
0000
0000
0000
0000
0000
0000
ENDCHAR
STARTCHAR C0050
ENCODING -1 80
SWIDTH 500 0
DWIDTH 16 0
BBX 16 32 0 -26
BITMAP
FFFF
8000
8000
8000
8000
8000
8000
8000
FFFF
0000
0000
0000
0000
0000
0000
0000
0000
0000
0000
0000
0000
0000
0000
0000
0000
0000
0000
0000
0000
0000
0000
0000
ENDCHAR
STARTCHAR C0051
ENCODING -1 81
SWIDTH 125 0
DWIDTH 4 0
BBX 16 32 0 -26
BITMAP
4000
4000
4000
E000
0000
0000
0000
0000
0000
0000
0000
0000
0000
0000
0000
0000
0000
0000
0000
0000
0000
0000
0000
0000
0000
0000
0000
0000
0000
0000
0000
0000
ENDCHAR
STARTCHAR C0052
ENCODING -1 82
SWIDTH 156 0
DWIDTH 5 0
BBX 16 32 0 -26
BITMAP
0000
0000
0000
1000
F000
1000
0000
0000
0000
0000
0000
0000
0000
0000
0000
0000
0000
0000
0000
0000
0000
0000
0000
0000
0000
0000
0000
0000
0000
0000
0000
0000
ENDCHAR
STARTCHAR C0053
ENCODING -1 83
SWIDTH 125 0
DWIDTH 4 0
BBX 16 32 0 -26
BITMAP
E000
4000
4000
4000
0000
0000
0000
0000
0000
0000
0000
0000
0000
0000
0000
0000
0000
0000
0000
0000
0000
0000
0000
0000
0000
0000
0000
0000
0000
0000
0000
0000
ENDCHAR
STARTCHAR C0054
ENCODING -1 84
SWIDTH 156 0
DWIDTH 5 0
BBX 16 32 0 -26
BITMAP
0000
0000
0000
8000
F000
8000
0000
0000
0000
0000
0000
0000
0000
0000
0000
0000
0000
0000
0000
0000
0000
0000
0000
0000
0000
0000
0000
0000
0000
0000
0000
0000
ENDCHAR
STARTCHAR C0057
ENCODING -1 87
SWIDTH 500 0
DWIDTH 16 0
BBX 16 32 0 -26
BITMAP
0000
0000
07FF
0400
0C00
0400
0400
0400
0C00
0400
0400
0400
0C00
0400
0400
0400
0C00
0000
0000
0000
0000
0000
0000
0000
0000
0000
0000
0000
0000
0000
0000
0000
ENDCHAR
STARTCHAR C0058
ENCODING -1 88
SWIDTH 500 0
DWIDTH 16 0
BBX 16 32 0 -26
BITMAP
0000
0400
0400
0400
0C00
0400
0400
0400
0C00
0400
0400
0400
0C00
0400
0400
0400
0C00
0400
07FF
0000
0000
0000
0000
0000
0000
0000
0000
0000
0000
0000
0000
0000
ENDCHAR
STARTCHAR C0059
ENCODING -1 89
SWIDTH 500 0
DWIDTH 16 0
BBX 16 32 0 -26
BITMAP
0000
0000
0000
0000
0888
3FFF
2000
2000
2000
2000
2000
0000
0000
0000
0000
0000
0000
0000
0000
0000
0000
0000
0000
0000
0000
0000
0000
0000
0000
0000
0000
0000
ENDCHAR
STARTCHAR C005A
ENCODING -1 90
SWIDTH 500 0
DWIDTH 16 0
BBX 16 32 0 -26
BITMAP
0000
0000
0000
0000
1111
3FFF
0000
0000
0000
0000
0000
0000
0000
0000
0000
0000
0000
0000
0000
0000
0000
0000
0000
0000
0000
0000
0000
0000
0000
0000
0000
0000
ENDCHAR
STARTCHAR C0061
ENCODING -1 97
SWIDTH 500 0
DWIDTH 16 0
BBX 16 32 0 -26
BITMAP
0000
0000
7E00
41C0
4030
4008
4004
4002
4002
4001
4001
4001
4001
0000
0000
0000
0000
0000
0000
0000
0000
0000
0000
0000
0000
0000
0000
0000
0000
0000
0000
0000
ENDCHAR
STARTCHAR C0062
ENCODING -1 98
SWIDTH 500 0
DWIDTH 16 0
BBX 16 32 0 -26
BITMAP
0000
0000
0000
0000
0000
0000
0000
0000
0000
0000
0000
0000
0000
4001
4001
4001
4002
4002
4004
4008
4030
41C0
7E00
0000
0000
0000
0000
0000
0000
0000
0000
0000
ENDCHAR
STARTCHAR C0063
ENCODING -1 99
SWIDTH 500 0
DWIDTH 16 0
BBX 16 32 0 -26
BITMAP
0000
0000
7800
2700
10C0
1030
080C
0803
0800
0800
0400
0400
0400
0000
0000
0000
0000
0000
0000
0000
0000
0000
0000
0000
0000
0000
0000
0000
0000
0000
0000
0000
ENDCHAR
STARTCHAR C0064
ENCODING -1 100
SWIDTH 500 0
DWIDTH 16 0
BBX 16 32 0 -26
BITMAP
0000
0000
0000
0000
0000
0000
0000
0000
0000
0000
0000
0000
0000
0400
0400
0800
0800
0803
080C
1030
10C0
2700
7800
0000
0000
0000
0000
0000
0000
0000
0000
0000
ENDCHAR
STARTCHAR C0065
ENCODING -1 101
SWIDTH 219 0
DWIDTH 7 0
BBX 16 32 0 -26
BITMAP
0000
0000
4000
2000
1000
1000
0800
0800
0800
0800
0400
0400
0400
0000
0000
0000
0000
0000
0000
0000
0000
0000
0000
0000
0000
0000
0000
0000
0000
0000
0000
0000
ENDCHAR
STARTCHAR C0066
ENCODING -1 102
SWIDTH 219 0
DWIDTH 7 0
BBX 16 32 0 -26
BITMAP
0000
0000
0000
0000
0000
0000
0000
0000
0000
0000
0000
0000
0000
0400
0400
0800
0800
0800
0800
1000
1000
2000
4000
0000
0000
0000
0000
0000
0000
0000
0000
0000
ENDCHAR
STARTCHAR C0067
ENCODING -1 103
SWIDTH 500 0
DWIDTH 16 0
BBX 16 32 0 -26
BITMAP
0000
6000
5800
4600
4180
4060
4018
4006
4001
0000
0000
0000
0000
0000
0000
0000
0000
0000
0000
0000
0000
0000
0000
0000
0000
0000
0000
0000
0000
0000
0000
0000
ENDCHAR
STARTCHAR C0068
ENCODING -1 104
SWIDTH 500 0
DWIDTH 16 0
BBX 16 32 0 -26
BITMAP
0000
0000
0000
0000
0000
0000
0000
0000
0000
4006
4018
4060
4180
4600
5800
6000
0000
0000
0000
0000
0000
0000
0000
0000
0000
0000
0000
0000
0000
0000
0000
0000
ENDCHAR
STARTCHAR C0069
ENCODING -1 105
SWIDTH 188 0
DWIDTH 6 0
BBX 16 32 0 -26
BITMAP
0000
0000
7000
8800
8800
8800
7000
0000
0000
0000
0000
0000
0000
0000
0000
0000
0000
0000
0000
0000
0000
0000
0000
0000
0000
0000
0000
0000
0000
0000
0000
0000
ENDCHAR
STARTCHAR C006A
ENCODING -1 106
SWIDTH 500 0
DWIDTH 16 0
BBX 16 32 0 -26
BITMAP
0000
0000
0404
0A0A
F111
00A0
0040
0000
0000
0000
0000
0000
0000
0000
0000
0000
0000
0000
0000
0000
0000
0000
0000
0000
0000
0000
0000
0000
0000
0000
0000
0000
ENDCHAR
STARTCHAR C006B
ENCODING -1 107
SWIDTH 250 0
DWIDTH 8 0
BBX 16 32 0 -26
BITMAP
0800
0800
0800
0800
1000
2000
1000
0800
0400
0200
0400
0800
1000
2000
1000
0800
0400
0200
0400
0800
1000
2000
1000
0800
0400
0200
0400
0800
0800
0800
0800
0800
ENDCHAR
STARTCHAR C006C
ENCODING -1 108
SWIDTH 500 0
DWIDTH 16 0
BBX 16 32 0 -26
BITMAP
0240
0240
0240
0240
FE7F
0240
0240
0240
0240
0000
0000
0000
0000
0000
0000
0000
0000
0000
0000
0000
0000
0000
0000
0000
0000
0000
0000
0000
0000
0000
0000
0000
ENDCHAR
STARTCHAR C006D
ENCODING -1 109
SWIDTH 312 0
DWIDTH 10 0
BBX 16 32 0 -26
BITMAP
0800
0800
0800
0800
0800
0800
FF80
0000
0000
FF80
0800
0800
0800
0800
0800
0800
0000
0000
0000
0000
0000
0000
0000
0000
0000
0000
0000
0000
0000
0000
0000
0000
ENDCHAR
STARTCHAR C006E
ENCODING -1 110
SWIDTH 312 0
DWIDTH 10 0
BBX 16 32 0 -26
BITMAP
0800
0800
FF80
8080
4100
2200
1400
0800
0000
0000
0000
0000
0000
0000
0000
0000
0000
0000
0000
0000
0000
0000
0000
0000
0000
0000
0000
0000
0000
0000
0000
0000
ENDCHAR
STARTCHAR C006F
ENCODING -1 111
SWIDTH 31 0
DWIDTH 1 0
BBX 16 32 0 -26
BITMAP
0000
0000
0000
0000
0000
0000
0000
0000
0000
0000
0000
0000
0000
0000
0000
0000
0000
0000
0000
0000
0000
0000
0000
0000
0000
0000
0000
0000
0000
0000
0000
0000
ENDCHAR
STARTCHAR C0070
ENCODING -1 112
SWIDTH 500 0
DWIDTH 16 0
BBX 16 32 0 -26
BITMAP
1FFF
2000
4000
8000
8000
8000
4000
2000
1FFF
0000
0000
0000
0000
0000
0000
0000
0000
0000
0000
0000
0000
0000
0000
0000
0000
0000
0000
0000
0000
0000
0000
0000
ENDCHAR
STARTCHAR C0071
ENCODING -1 113
SWIDTH 281 0
DWIDTH 9 0
BBX 16 32 0 -26
BITMAP
0800
1400
1400
2200
2200
4100
4100
0000
0000
0000
0000
0000
0000
0000
0000
0000
0000
0000
0000
0000
0000
0000
0000
0000
0000
0000
0000
0000
0000
0000
0000
0000
ENDCHAR
STARTCHAR C0072
ENCODING -1 114
SWIDTH 281 0
DWIDTH 9 0
BBX 16 32 0 -26
BITMAP
0000
0000
4100
4100
2200
2200
1400
1400
0800
0000
0000
0000
0000
0000
0000
0000
0000
0000
0000
0000
0000
0000
0000
0000
0000
0000
0000
0000
0000
0000
0000
0000
ENDCHAR
STARTCHAR C0078
ENCODING -1 120
SWIDTH 281 0
DWIDTH 9 0
BBX 16 32 0 -26
BITMAP
0000
4100
2200
1400
0800
1400
2200
4100
0000
0000
0000
0000
0000
0000
0000
0000
0000
0000
0000
0000
0000
0000
0000
0000
0000
0000
0000
0000
0000
0000
0000
0000
ENDCHAR
STARTCHAR C0079
ENCODING -1 121
SWIDTH 500 0
DWIDTH 16 0
BBX 16 32 0 -26
BITMAP
0000
0000
0000
0000
0000
0000
0000
0000
0000
0000
0000
2000
2000
2000
2000
2000
3FFF
0888
0000
0000
0000
0000
0000
0000
0000
0000
0000
0000
0000
0000
0000
0000
ENDCHAR
STARTCHAR C007A
ENCODING -1 122
SWIDTH 500 0
DWIDTH 16 0
BBX 16 32 0 -26
BITMAP
0000
0000
0000
0000
0000
0000
0000
0000
0000
0000
0000
0000
0000
0000
0000
0000
7FFF
2222
0000
0000
0000
0000
0000
0000
0000
0000
0000
0000
0000
0000
0000
0000
ENDCHAR
STARTCHAR C007E
ENCODING -1 126
SWIDTH 188 0
DWIDTH 6 0
BBX 16 32 0 -26
BITMAP
7000
8800
8000
F000
8800
8800
7000
0000
0000
0000
0000
0000
0000
0000
0000
0000
0000
0000
0000
0000
0000
0000
0000
0000
0000
0000
0000
0000
0000
0000
0000
0000
ENDCHAR
ENDFONT
